<svg width="103" height="103" viewBox="0 0 103 103" fill="none" xmlns="http://www.w3.org/2000/svg">
<g clip-path="url(#clip0)">
<rect opacity="0.15" x="19.0974" y="-4.50313" width="91.1888" height="91.1888" rx="19.0777" transform="rotate(15 19.0974 -4.50313)" fill="url(#halo)" stroke="white" stroke-width="0.811381"/>
<g filter="url(#shadow)">
<g clip-path="url(#clip1)">
<rect x="25.7695" y="7.39258" width="71" height="71" rx="16.0323" transform="rotate(15 25.7695 7.39258)" fill="#EE412A"/>
<rect x="25.7695" y="7.39258" width="71" height="71" rx="16.0323" transform="rotate(15 25.7695 7.39258)" fill="url(#brandGrad)"/>
<rect x="25.7695" y="7.39258" width="71" height="71" rx="16.0323" transform="rotate(15 25.7695 7.39258)" fill="url(#sheen)" fill-opacity="0.2"/>
<rect x="25.7695" y="7.39258" width="71" height="71" rx="16.0323" transform="rotate(15 25.7695 7.39258)" fill="url(#topLight)" fill-opacity="0.1"/>

<!-- Card icon centered inside the tilted square -->
<g transform="rotate(15 25.7695 7.39258) translate(43 18) scale(0.69)">
  <!-- Card shape - subtle white fill -->
  <rect x="0" y="0" width="52" height="72" rx="6" ry="6" fill="white" fill-opacity="0.12"/>
  <!-- Card border -->
  <rect x="0" y="0" width="52" height="72" rx="6" ry="6"
        fill="none" stroke="white" stroke-opacity="0.5" stroke-width="3"
        stroke-linecap="round" stroke-linejoin="round"/>
  <!-- J top-left -->
  <text x="10" y="21" font-family="'Urbanist', system-ui, -apple-system, sans-serif"
        font-size="19" font-weight="800" fill="white" fill-opacity="0.85">J</text>
  <!-- Club symbol center -->
  <g transform="translate(26, 43)" fill="white" fill-opacity="0.85">
    <circle cx="0" cy="-5" r="4.6"/>
    <circle cx="-4.2" cy="1.3" r="4.6"/>
    <circle cx="4.2" cy="1.3" r="4.6"/>
    <rect x="-1.4" y="3.5" width="2.8" height="6.5" rx="1"/>
  </g>
</g>

<g opacity="0.5" filter="url(#glow)">
<rect x="72.7344" y="88.7402" width="61.8387" height="61.8387" rx="9.16129" transform="rotate(-165 72.7344 88.7402)" fill="url(#glowGrad)"/>
</g>
<rect opacity="0.1" x="28.4017" y="11.9502" width="63.5565" height="63.5565" rx="13.7137" transform="rotate(15 28.4017 11.9502)" stroke="white" stroke-width="0.572581"/>
</g>
<rect x="26.1744" y="8.09384" width="69.8548" height="69.8548" rx="15.4597" transform="rotate(15 26.1744 8.09384)" stroke="white" stroke-opacity="0.15" stroke-width="1.14516"/>
</g>
</g>
<defs>
<filter id="shadow" x="-26.9623" y="-17.801" width="155.667" height="155.667" filterUnits="userSpaceOnUse" color-interpolation-filters="sRGB">
<feFlood flood-opacity="0" result="BackgroundImageFix"/>
<feColorMatrix in="SourceAlpha" type="matrix" values="0 0 0 0 0 0 0 0 0 0 0 0 0 0 0 0 0 0 127 0" result="hardAlpha"/>
<feOffset dy="9.16129"/>
<feGaussianBlur stdDeviation="17.1774"/>
<feComposite in2="hardAlpha" operator="out"/>
<feColorMatrix type="matrix" values="0 0 0 0 0 0 0 0 0 0 0 0 0 0 0 0 0 0 0.6 0"/>
<feBlend mode="normal" in2="BackgroundImageFix" result="effect1_dropShadow"/>
<feBlend mode="normal" in="SourceGraphic" in2="effect1_dropShadow" result="shape"/>
<feColorMatrix in="SourceAlpha" type="matrix" values="0 0 0 0 0 0 0 0 0 0 0 0 0 0 0 0 0 0 127 0" result="hardAlpha"/>
<feOffset dy="-0.71"/>
<feGaussianBlur stdDeviation="6.12661"/>
<feComposite in2="hardAlpha" operator="arithmetic" k2="-1" k3="1"/>
<feColorMatrix type="matrix" values="0 0 0 0 0.133333 0 0 0 0 0.133333 0 0 0 0 0.133333 0 0 0 0.5 0"/>
<feBlend mode="normal" in2="shape" result="effect2_innerShadow"/>
</filter>
<filter id="glow" x="8.18763" y="8.18958" width="85.3669" height="85.365" filterUnits="userSpaceOnUse" color-interpolation-filters="sRGB">
<feFlood flood-opacity="0" result="BackgroundImageFix"/>
<feBlend mode="normal" in="SourceGraphic" in2="BackgroundImageFix" result="shape"/>
<feGaussianBlur stdDeviation="3.43548" result="effect1_foregroundBlur"/>
</filter>
<linearGradient id="halo" x1="21.3661" y1="-8.40741" x2="53.7365" y2="34.1853" gradientUnits="userSpaceOnUse">
<stop stop-color="white"/>
<stop offset="1" stop-color="white" stop-opacity="0"/>
</linearGradient>
<linearGradient id="brandGrad" x1="25.7695" y1="94.4248" x2="118.909" y2="43.372" gradientUnits="userSpaceOnUse">
<stop stop-color="#3A1C71"/>
<stop offset="0.5" stop-color="#D76D77"/>
<stop offset="1" stop-color="#FFCA7B"/>
</linearGradient>
<linearGradient id="sheen" x1="54.4082" y1="95.3358" x2="119.666" y2="32.1703" gradientUnits="userSpaceOnUse">
<stop stop-color="white" stop-opacity="0"/>
<stop offset="0.5" stop-opacity="0.8"/>
<stop offset="1" stop-color="white" stop-opacity="0"/>
</linearGradient>
<linearGradient id="topLight" x1="61.2695" y1="7.39258" x2="61.2695" y2="78.3926" gradientUnits="userSpaceOnUse">
<stop stop-color="white"/>
<stop offset="1" stop-color="#93959F"/>
</linearGradient>
<linearGradient id="glowGrad" x1="74.4521" y1="86.4499" x2="88.7666" y2="100.764" gradientUnits="userSpaceOnUse">
<stop stop-color="white"/>
<stop offset="1" stop-color="white" stop-opacity="0"/>
</linearGradient>
<clipPath id="clip0">
<rect width="103" height="103" fill="white"/>
</clipPath>
<clipPath id="clip1">
<rect x="25.7695" y="7.39258" width="71" height="71" rx="16.0323" transform="rotate(15 25.7695 7.39258)" fill="white"/>
</clipPath>
</defs>
</svg>
